<svg width="35" height="35" viewBox="0 0 35 35" fill="none" xmlns="http://www.w3.org/2000/svg">
<rect width="35" height="35" rx="2" fill="white" fill-opacity="0.5"/>
<path d="M16.9973 12.869C14.1579 12.869 11.8664 15.1606 11.8664 18C11.8664 20.8394 14.1579 23.131 16.9973 23.131C19.8367 23.131 22.1282 20.8394 22.1282 18C22.1282 15.1606 19.8367 12.869 16.9973 12.869ZM16.9973 21.3348C15.1611 21.3348 13.6626 19.8362 13.6626 18C13.6626 16.1638 15.1611 14.6652 16.9973 14.6652C18.8335 14.6652 20.332 16.1638 20.332 18C20.332 19.8362 18.8335 21.3348 16.9973 21.3348ZM22.3383 11.4631C21.6754 11.4631 21.14 11.9984 21.14 12.6614C21.14 13.3243 21.6754 13.8597 22.3383 13.8597C23.0013 13.8597 23.5366 13.3268 23.5366 12.6614C23.5368 12.504 23.5059 12.3481 23.4458 12.2026C23.3856 12.0571 23.2974 11.9249 23.1861 11.8136C23.0748 11.7023 22.9426 11.614 22.7971 11.5539C22.6516 11.4937 22.4957 11.4629 22.3383 11.4631ZM26.9989 18C26.9989 16.6191 27.0114 15.2506 26.9338 13.8722C26.8563 12.2711 26.4911 10.8502 25.3203 9.67938C24.147 8.50609 22.7286 8.14334 21.1275 8.06579C19.7466 7.98824 18.3782 8.00074 16.9998 8.00074C15.6189 8.00074 14.2505 7.98824 12.8721 8.06579C11.271 8.14334 9.85012 8.50859 8.67935 9.67938C7.50608 10.8527 7.14334 12.2711 7.06579 13.8722C6.98824 15.2531 7.00074 16.6216 7.00074 18C7.00074 19.3784 6.98824 20.7494 7.06579 22.1278C7.14334 23.7289 7.50858 25.1498 8.67935 26.3206C9.85262 27.4939 11.271 27.8567 12.8721 27.9342C14.253 28.0118 15.6214 27.9993 16.9998 27.9993C18.3807 27.9993 19.7491 28.0118 21.1275 27.9342C22.7286 27.8567 24.1495 27.4914 25.3203 26.3206C26.4936 25.1473 26.8563 23.7289 26.9338 22.1278C27.0139 20.7494 26.9989 19.3809 26.9989 18ZM24.7974 23.899C24.6148 24.3543 24.3947 24.6945 24.0419 25.0448C23.6892 25.3975 23.3515 25.6176 22.8962 25.8003C21.5803 26.3231 18.4558 26.2055 16.9973 26.2055C15.5389 26.2055 12.4118 26.3231 11.0959 25.8028C10.6406 25.6201 10.3004 25.4 9.95018 25.0473C9.59745 24.6945 9.37731 24.3568 9.19469 23.9015C8.67434 22.5831 8.79192 19.4585 8.79192 18C8.79192 16.5415 8.67434 13.4144 9.19469 12.0985C9.37731 11.6432 9.59745 11.303 9.95018 10.9527C10.3029 10.6025 10.6406 10.3799 11.0959 10.1972C12.4118 9.67688 15.5389 9.79446 16.9973 9.79446C18.4558 9.79446 21.5828 9.67688 22.8987 10.1972C23.354 10.3799 23.6942 10.6 24.0444 10.9527C24.3972 11.3055 24.6173 11.6432 24.7999 12.0985C25.3203 13.4144 25.2027 16.5415 25.2027 18C25.2027 19.4585 25.3203 22.5831 24.7974 23.899Z" fill="white"/>
</svg>
