<svg width="35" height="35" viewBox="0 0 35 35" fill="none" xmlns="http://www.w3.org/2000/svg">
<rect width="35" height="35" rx="2" fill="white" fill-opacity="0.5"/>
<path d="M7 17.5C7 21.9826 9.80962 25.8099 13.7638 27.3158C13.6675 26.4959 13.5651 25.144 13.7856 24.1955C13.9755 23.38 15.0115 18.9998 15.0115 18.9998C15.0115 18.9998 14.6991 18.3741 14.6991 17.4475C14.6991 15.995 15.5409 14.91 16.59 14.91C17.4825 14.91 17.913 15.5794 17.913 16.3818C17.913 17.2786 17.3416 18.6191 17.0468 19.8625C16.8009 20.9029 17.5691 21.7516 18.5946 21.7516C20.4523 21.7516 21.8811 19.7925 21.8811 16.9645C21.8811 14.4611 20.0821 12.712 17.514 12.712C14.5408 12.712 12.7951 14.9424 12.7951 17.248C12.7951 18.1466 13.1407 19.1091 13.573 19.6332C13.6099 19.6728 13.6359 19.7212 13.6486 19.7738C13.6613 19.8264 13.6603 19.8813 13.6456 19.9334C13.566 20.2641 13.3892 20.9738 13.3551 21.119C13.3088 21.3097 13.2038 21.3509 13.0051 21.2581C11.6996 20.6509 10.8841 18.7425 10.8841 17.2095C10.8841 13.9116 13.279 10.8841 17.7896 10.8841C21.4156 10.8841 24.234 13.468 24.234 16.9208C24.234 20.5231 21.9634 23.4229 18.8099 23.4229C17.7502 23.4229 16.7554 22.8716 16.4141 22.2215C16.4141 22.2215 15.89 24.2183 15.7631 24.7065C15.5164 25.655 14.8321 26.8555 14.4077 27.5371C15.386 27.8381 16.4237 28 17.5 28C23.2986 28 28 23.2986 28 17.5C28 11.7014 23.2986 7 17.5 7C11.7014 7 7 11.7014 7 17.5Z" fill="white"/>
</svg>
