<svg width="52" height="51" viewBox="0 0 52 51" fill="none" xmlns="http://www.w3.org/2000/svg">
<path d="M0.128414 37.2629C0.0853296 37.1955 0.042525 37.1277 0 37.0596C0.0355181 37.0814 0.0655613 37.1111 0.0878222 37.1463C0.110083 37.1816 0.123969 37.2214 0.128414 37.2629Z" fill="white"/>
<path d="M52 30.4272C51.1353 34.9739 49.1354 39.2283 46.1861 42.7951C41.1293 48.9189 33.6804 50.7928 25.1182 50.7928C19.7873 50.7928 14.6096 51.3086 10.3917 48.6883C5.97375 45.9431 2.41843 42.009 0.133008 37.3366C0.133395 37.3123 0.131921 37.2879 0.128601 37.2638C4.2878 43.7647 10.7878 45.7482 16.9509 42.6946C24.5493 38.6955 20.1113 25.324 19.7388 24.5416C19.6183 24.2882 19.5041 24.0332 19.3964 23.7765C19.3525 23.6716 19.2042 23.4123 18.9791 23.2553C18.6876 23.0524 18.3057 22.9601 18.2514 22.9502C17.9576 22.8984 17.6689 22.8317 17.3863 22.753C16.6492 22.545 15.9369 22.2577 15.2618 21.8963C14.6039 21.5445 13.9789 21.1345 13.3943 20.6711C12.8216 20.2171 12.2832 19.7213 11.7837 19.1878C11.5355 18.9241 11.297 18.6535 11.0682 18.376C10.9536 18.2372 10.8413 18.0974 10.7312 17.9563C10.6762 17.8857 10.6216 17.8147 10.5675 17.7434L10.4869 17.6353L10.4819 17.6286L10.4945 17.6424L10.492 17.6391L10.4823 17.6275L10.4624 17.6034L10.4204 17.5545C10.2001 17.2927 9.97118 17.0329 9.73869 16.7782C9.5062 16.5234 9.26993 16.27 9.02737 16.0232C8.78481 15.7765 8.53763 15.5343 8.28374 15.2989C8.02985 15.0635 7.77051 14.835 7.50214 14.6169C7.23472 14.3974 6.95521 14.1931 6.66493 14.0049C6.51931 13.9115 6.36991 13.8236 6.21548 13.7447C6.06104 13.6643 5.90043 13.5964 5.73518 13.5416C5.90789 13.5742 6.07775 13.6205 6.24318 13.6799C6.40957 13.7384 6.5726 13.8058 6.73291 13.8809C7.05257 14.032 7.3636 14.2007 7.66454 14.3863C7.96649 14.5702 8.26087 14.7663 8.55002 14.9699C8.83916 15.1734 9.12242 15.3847 9.4017 15.6015C9.68098 15.8182 9.95586 16.0404 10.2272 16.2677C10.4985 16.4949 10.7656 16.7261 11.0302 16.9662L11.0799 17.0115L11.1051 17.0346L11.1181 17.0467L11.121 17.0495L11.1368 17.0669V17.0679L11.1422 17.0736L11.2322 17.1647C11.2924 17.2254 11.353 17.2855 11.4139 17.3449C11.5359 17.4644 11.6593 17.5817 11.7841 17.6968C12.0338 17.9272 12.2896 18.1488 12.5516 18.3615C13.0698 18.784 13.6186 19.1674 14.1935 19.5086C14.7556 19.8425 15.3464 20.1252 15.959 20.3534C16.4488 20.5354 16.9535 20.6742 17.4675 20.7682C17.5224 20.7781 17.9368 20.865 18.1192 20.7263C18.3015 20.5876 18.2522 20.2227 18.2216 20.0907C18.1909 19.9587 18.1622 19.8332 18.1341 19.7044C17.9547 18.8848 17.8112 18.0621 17.6955 17.2387C17.4647 15.5916 17.3432 13.9419 17.2923 12.2965C17.2413 10.651 17.2629 9.00952 17.3311 7.3735C17.3651 6.5556 17.4099 5.73881 17.4656 4.92314C17.5195 4.10775 17.5831 3.29362 17.6437 2.47949C17.658 3.29572 17.6691 4.11237 17.6899 4.92797C17.7107 5.74356 17.7392 6.55811 17.7799 7.37161C17.8611 8.9984 17.9897 10.6199 18.1874 12.2281C18.2272 12.5515 18.27 12.8742 18.3156 13.1962C18.3305 13.3011 18.3888 13.5579 18.5621 13.6133C18.6933 13.6553 18.9337 13.5175 19.0221 13.4734C19.4376 13.267 19.8326 13.0218 20.2019 12.7411C20.5753 12.4562 20.9219 12.1378 21.2374 11.7899C21.5577 11.437 21.8468 11.0571 22.1017 10.6544C22.2301 10.4518 22.3507 10.2436 22.4634 10.0297C22.5194 9.92283 22.5737 9.81477 22.6265 9.70552C22.6528 9.65097 22.6784 9.59599 22.7035 9.5406L22.741 9.45772L22.7457 9.44722L22.744 9.45184V9.45016L22.7465 9.44387L22.7557 9.42121L22.7742 9.37651C22.873 9.14088 22.9771 8.91112 23.0854 8.68261C23.1936 8.45411 23.3067 8.22855 23.4242 8.0055C23.6578 7.55877 23.9152 7.12492 24.1954 6.70583C24.3364 6.49726 24.4845 6.29373 24.6421 6.09733C24.7984 5.9015 24.9672 5.71591 25.1473 5.54171C24.9903 5.73509 24.8459 5.93834 24.7149 6.15021C24.5835 6.36004 24.4631 6.577 24.3494 6.79711C24.1255 7.23813 23.9255 7.6909 23.7503 8.15343C23.6619 8.38424 23.5785 8.61659 23.5002 8.85047C23.4221 9.08401 23.3479 9.31965 23.2811 9.55403L23.269 9.59767L23.2631 9.61865L23.2618 9.62348V9.62621C23.2609 9.62963 23.2597 9.633 23.2583 9.63628L23.2549 9.64782L23.226 9.73972C23.2067 9.80057 23.1867 9.86163 23.1659 9.92248C23.124 10.0442 23.0803 10.1652 23.035 10.2855C22.9428 10.5262 22.8409 10.764 22.7291 10.9989C22.5043 11.4707 22.2392 11.9223 21.9368 12.3485C21.6302 12.7803 21.285 13.1833 20.9053 13.5525C20.5209 13.9261 20.1022 14.2627 19.6547 14.5578C19.4991 14.6599 19.3397 14.7571 19.1763 14.8494C19.1406 14.8704 18.9497 14.9986 18.8502 15.1852C18.744 15.3847 18.7308 15.6453 18.7524 15.7532C18.8364 16.1682 18.9262 16.5812 19.0219 16.9922C19.2057 17.7723 19.4147 18.5437 19.6547 19.3003C19.8947 20.0569 20.1665 20.7999 20.4755 21.5196C20.7794 22.2332 21.1294 22.9263 21.5232 23.5944C21.9065 24.2456 22.3457 24.8623 22.8357 25.4375C22.957 25.5784 23.081 25.7155 23.2079 25.849L23.3042 25.9485L23.4154 26.0645C23.4893 26.1424 23.5627 26.2206 23.6355 26.2991C23.8093 26.4865 24.3582 27.002 24.918 27.2702C25.2428 27.4235 25.6073 27.472 25.9608 27.4089C26.5064 27.3098 27.0438 26.9703 27.2702 26.8348C29.3422 25.5972 31.0813 23.8732 32.3367 21.8119C32.9718 20.7648 33.4862 19.6491 33.8701 18.4862L33.8822 18.4501L33.899 18.41L33.9162 18.3699L33.9511 18.2908L34.0209 18.1349C34.0679 18.0315 34.1156 17.9289 34.1638 17.8269C34.2605 17.6229 34.3595 17.4207 34.4609 17.2201C34.6632 16.8186 34.873 16.4222 35.0904 16.0308C35.5263 15.2474 35.9904 14.4828 36.4828 13.7369C36.9752 12.9911 37.4956 12.267 38.044 11.5648C38.5929 10.8638 39.1709 10.1869 39.7796 9.54123C39.2295 10.2374 38.7152 10.9592 38.2332 11.7001C37.7512 12.441 37.3028 13.2023 36.8832 13.9772C36.4635 14.7521 36.0745 15.5423 35.7161 16.344C35.5369 16.7452 35.3661 17.1491 35.2037 17.5556C35.1227 17.759 35.0443 17.9628 34.9683 18.167C34.9305 18.2691 34.8935 18.3713 34.8573 18.4736L34.8042 18.6263L34.7786 18.7023L34.7662 18.7398L34.7551 18.7747L34.766 18.7413C34.4659 20.0138 34.0224 21.2481 33.4441 22.4206C33.3726 22.5654 33.3165 22.86 33.4487 23.0554C33.5616 23.2222 33.8474 23.3027 33.9823 23.3071C34.5701 23.3257 35.158 23.2764 35.7344 23.1603C36.3173 23.0427 36.884 22.8557 37.4224 22.6032C37.9696 22.3455 38.4854 22.026 38.9599 21.651C39.2009 21.4612 39.432 21.2591 39.6523 21.0456C39.7628 20.9385 39.871 20.8284 39.9769 20.7154L39.9968 20.6944L40.0016 20.6891L40.0042 20.6864C40.0132 20.6763 40.0176 20.6711 40.0201 20.6688L40.0335 20.656C40.0503 20.6402 40.0663 20.6258 40.0824 20.6113C40.1145 20.5823 40.1464 20.5544 40.1785 20.5274C40.2426 20.4727 40.307 20.4193 40.3718 20.3673C40.6315 20.1595 40.8999 19.9686 41.1756 19.7896C41.4513 19.6106 41.7348 19.4461 42.0246 19.2948C42.6014 18.992 43.2067 18.7468 43.8316 18.5627C44.4503 18.3804 45.0875 18.2678 45.7312 18.227C45.1036 18.3375 44.4903 18.5178 43.9027 18.7644C43.3214 19.0086 42.7655 19.3094 42.243 19.6624C41.9831 19.8379 41.7322 20.0244 41.4902 20.2221C41.2486 20.4197 41.0166 20.6279 40.799 20.8457C40.7449 20.9002 40.6916 20.9554 40.6397 21.0108C40.6139 21.0385 40.5885 21.0664 40.564 21.0947C40.5518 21.1086 40.5396 21.1224 40.5287 21.1354L40.5239 21.1415L40.5342 21.13L40.5319 21.1331L40.5273 21.1394L40.5086 21.1642C40.4097 21.2968 40.3073 21.4272 40.2014 21.5555C39.9891 21.8134 39.7636 22.0602 39.526 22.2949C39.0439 22.7715 38.5088 23.1913 37.9313 23.5461C37.3447 23.9044 36.7174 24.1913 36.0628 24.4006C35.0662 24.7188 34.0224 24.8636 32.9768 24.8286C32.8008 24.8225 32.1585 24.9528 31.9 25.1568C31.6577 25.3475 31.3991 25.5731 31.268 25.7275C30.4023 26.7457 29.4178 27.6564 28.3355 28.4404C28.0977 28.6128 27.8552 28.7792 27.608 28.9395C27.5228 28.9945 27.0094 29.3527 26.8344 29.8544C26.6728 30.3179 26.8438 30.926 26.8839 31.0105C27.6562 32.6392 29.5407 41.3238 39.7855 40.581C49.99 39.8407 51.9847 30.5002 52 30.4272Z" fill="white"/>
<path d="M27.8145 25.2353C28.2552 25.1644 28.5248 25.0068 28.8263 24.7005C29.1066 24.4153 29.3431 24.0112 29.4994 23.465C30.0681 21.4794 28.8995 18.3077 25.7261 18.0078C26.8902 19.7523 25.5444 21.3008 25.5536 22.6628C25.5629 24.0248 26.0104 24.8507 26.8441 25.1449C26.9198 25.1717 27.373 25.3062 27.8145 25.2353Z" fill="white"/>
<path d="M29.3714 29.0153C29.3924 28.5685 29.5206 28.284 29.791 27.9508C30.0428 27.6409 30.4193 27.3616 30.9451 27.1461C32.8562 26.3633 36.1373 27.177 36.7833 30.2981C34.9217 29.3329 33.531 30.8399 32.1753 30.9801C30.8196 31.1202 29.9511 30.7661 29.5665 29.9698C29.5321 29.898 29.3487 29.4618 29.3714 29.0153Z" fill="white"/>
<path d="M31.7266 20.3126C32.0688 20.2576 32.2771 20.1355 32.5107 19.898C32.7278 19.6771 32.911 19.364 33.0323 18.9408C33.4729 17.4021 32.5673 14.9444 30.1084 14.7119C31.0106 16.0638 29.9676 17.2636 29.9747 18.3191C29.9818 19.3745 30.3287 20.0145 30.9745 20.2425C31.0335 20.2633 31.3845 20.3676 31.7266 20.3126Z" fill="white"/>
<path d="M34.5048 15.2856C34.768 15.2437 34.9283 15.1495 35.1077 14.9669C35.2755 14.7972 35.4157 14.5563 35.5089 14.2308C35.8477 13.0478 35.1522 11.1577 33.2606 10.9785C33.954 12.018 33.1523 12.9406 33.1577 13.7522C33.1632 14.5638 33.4305 15.0559 33.9265 15.2313C33.9719 15.2479 34.2417 15.328 34.5048 15.2856Z" fill="white"/>
<path d="M37.2546 11.8036C37.458 11.7711 37.5818 11.6987 37.7204 11.5573C37.8495 11.4259 37.9584 11.24 38.0306 10.9884C38.2924 10.074 37.7542 8.61341 36.2928 8.47534C36.8289 9.27856 36.2088 9.99176 36.2135 10.6189C36.2181 11.2461 36.4233 11.6261 36.8077 11.7621C36.8425 11.7745 37.0511 11.8364 37.2546 11.8036Z" fill="white"/>
<path d="M16.2781 12.4243C16.54 12.1974 16.6529 11.9836 16.7263 11.659C16.7947 11.3569 16.7855 10.9941 16.6657 10.5704C16.2301 9.03051 14.166 7.41799 11.9532 8.51518C13.4318 9.18956 13.1773 10.7587 13.7392 11.6521C14.3012 12.5455 14.9327 12.9069 15.6021 12.7608C15.6629 12.7474 16.0163 12.6511 16.2781 12.4243Z" fill="white"/>
<path d="M16.2632 7.53502C16.4695 7.36716 16.561 7.20475 16.6248 6.95674C16.6839 6.72593 16.685 6.44686 16.6023 6.11869C16.3018 4.92519 14.751 3.64 13.0258 4.4342C14.1473 4.9852 13.9167 6.18562 14.3288 6.88498C14.7409 7.58433 15.2183 7.87599 15.7359 7.77842C15.7832 7.76961 16.0568 7.70351 16.2632 7.53502Z" fill="white"/>
<path d="M16.7079 3.54132C16.8516 3.39444 16.9077 3.26162 16.9347 3.06564C16.9601 2.88309 16.9364 2.66886 16.8441 2.42399C16.509 1.53411 15.2047 0.683474 13.9491 1.44536C14.8587 1.77017 14.7871 2.71208 15.1661 3.21294C15.545 3.7138 15.9362 3.89572 16.325 3.77528C16.36 3.76374 16.5644 3.68883 16.7079 3.54132Z" fill="white"/>
<path d="M18.8091 11.2752C18.5472 11.0484 18.4343 10.8345 18.3609 10.5099C18.2925 10.2076 18.3015 9.84499 18.4213 9.42135C18.8569 7.88143 20.9212 6.2687 23.1341 7.36609C21.6552 8.04027 21.9099 9.60957 21.348 10.503C20.7861 11.3965 20.1543 11.7578 19.4852 11.6115C19.4243 11.5983 19.071 11.502 18.8091 11.2752Z" fill="white"/>
<path d="M18.824 6.38548C18.6178 6.21762 18.5261 6.05521 18.4625 5.8072C18.4031 5.57639 18.4021 5.29753 18.4847 4.96915C18.7854 3.77586 20.3362 2.49046 22.0614 3.28487C20.9397 3.83587 21.1703 5.03629 20.7584 5.73565C20.3465 6.435 19.8688 6.72666 19.3511 6.62909C19.3041 6.62028 19.0303 6.55418 18.824 6.38548Z" fill="white"/>
<path d="M18.3792 2.39211C18.2357 2.24524 18.1796 2.11242 18.1524 1.91623C18.1272 1.73389 18.1509 1.51965 18.2432 1.27479C18.5789 0.384908 19.8826 -0.466781 21.1374 0.295522C20.2278 0.620124 20.2995 1.56225 19.9216 2.0629C19.5437 2.56354 19.1516 2.74567 18.7627 2.62544C18.7273 2.61453 18.5233 2.53962 18.3792 2.39211Z" fill="white"/>
<path d="M21.1772 15.3402C21.1007 15.0024 21.1353 14.7634 21.2696 14.4589C21.3936 14.175 21.6158 13.8882 21.9633 13.6179C23.2268 12.6355 25.8451 12.5596 26.9781 14.7548C25.3876 14.4216 24.6629 15.8366 23.6809 16.2236C22.6989 16.6105 21.9759 16.5272 21.5235 16.0137C21.4819 15.9655 21.2538 15.6782 21.1772 15.3402Z" fill="white"/>
<path d="M23.53 11.1259C23.4637 10.868 23.4858 10.6835 23.5814 10.446C23.6704 10.2249 23.8349 9.99951 24.0959 9.78402C25.0452 9.00094 27.056 8.88428 27.9752 10.5463C26.7452 10.3256 26.2196 11.4293 25.4734 11.7484C24.7273 12.0676 24.1696 12.0208 23.811 11.6345C23.7776 11.5994 23.5963 11.384 23.53 11.1259Z" fill="white"/>
<path d="M24.9885 7.90809C24.9067 7.71925 24.9015 7.57552 24.9466 7.38352C24.9885 7.20412 25.0863 7.01234 25.2596 6.81699C25.8891 6.10484 27.4112 5.77352 28.313 6.93177C27.3478 6.91078 27.079 7.81724 26.5478 8.15086C26.0165 8.48449 25.5851 8.51491 25.2645 8.26396C25.2344 8.23899 25.0699 8.09694 24.9885 7.90809Z" fill="white"/>
<path d="M42.045 18.3906C42.2321 18.476 42.3757 18.4842 42.5695 18.4437C42.7498 18.4057 42.9435 18.3111 43.1428 18.1418C43.8671 17.5255 44.228 16.0112 43.0878 15.0867C43.0893 16.0519 42.1782 16.3037 41.8345 16.8282C41.4908 17.3528 41.4516 17.7836 41.696 18.1082C41.7181 18.138 41.8574 18.3052 42.045 18.3906Z" fill="white"/>
<path d="M17.1945 24.5387C17.143 24.0945 16.9974 23.8188 16.7049 23.5041C16.4322 23.2103 16.0391 22.9572 15.5005 22.7768C13.5422 22.1207 10.3216 23.1476 9.88135 26.3044C11.6758 25.2188 13.163 26.6319 14.524 26.6821C15.8849 26.7322 16.7299 26.3227 17.061 25.5031C17.0912 25.4286 17.2457 24.9829 17.1945 24.5387Z" fill="white"/>
<path d="M12.6142 20.9917C12.5741 20.6476 12.461 20.4342 12.2339 20.1906C12.0227 19.964 11.7178 19.7674 11.3002 19.6278C9.78212 19.1211 7.28748 19.9193 6.94861 22.3659C8.33829 21.5232 9.49192 22.6177 10.5467 22.6556C11.6015 22.6936 12.2558 22.3755 12.5115 21.7402C12.5348 21.6822 12.6542 21.3371 12.6142 20.9917Z" fill="white"/>
<path d="M9.578 17.4599C9.52995 17.1979 9.43259 17.0403 9.24626 16.8642C9.07273 16.6999 8.82933 16.5652 8.50158 16.4792C7.31123 16.1664 5.43811 16.9039 5.29962 18.798C6.32379 18.0819 7.26381 18.8635 8.07501 18.84C8.8862 18.8165 9.37237 18.5393 9.53687 18.0391C9.55177 17.9937 9.62668 17.722 9.578 17.4599Z" fill="white"/>
<path d="M6.93142 14.8997C6.88945 14.6983 6.81098 14.5779 6.66368 14.4459C6.52645 14.3229 6.33551 14.2228 6.08078 14.1626C5.15523 13.9438 3.72127 14.5495 3.65161 16.0158C4.42902 15.4428 5.17034 16.0286 5.79667 15.9948C6.42301 15.961 6.79314 15.7378 6.91086 15.3479C6.92135 15.3127 6.9736 15.1014 6.93142 14.8997Z" fill="white"/>
<path d="M15.2381 18.9239C14.8946 18.9694 14.66 18.9124 14.368 18.7521C14.0964 18.6031 13.831 18.3557 13.5931 17.9853C12.729 16.6383 12.8897 14.0238 15.1781 13.0945C14.7028 14.6474 16.0474 15.497 16.3431 16.5109C16.6387 17.5248 16.4912 18.2365 15.9383 18.6406C15.8879 18.6763 15.5816 18.8771 15.2381 18.9239Z" fill="white"/>
<path d="M11.4855 16.2182C11.2196 16.2361 11.0423 16.1805 10.8264 16.043C10.6254 15.915 10.434 15.7119 10.2702 15.4156C9.67446 14.3388 9.92898 12.3408 11.7314 11.7422C11.2889 12.9109 12.2769 13.6306 12.454 14.4221C12.6311 15.2136 12.4813 15.7537 12.0367 16.0361C11.9964 16.0617 11.7513 16.2004 11.4855 16.2182Z" fill="white"/>
<path d="M8.4554 14.049C8.24977 14.0578 8.1138 14.0114 7.94971 13.9021C7.79696 13.7993 7.65302 13.6388 7.53195 13.4067C7.09236 12.5632 7.32737 11.0243 8.73153 10.5967C8.36706 11.491 9.11698 12.0655 9.23847 12.6811C9.35996 13.2967 9.23386 13.7103 8.88491 13.9191C8.85323 13.938 8.66145 14.0404 8.4554 14.049Z" fill="white"/>
<path d="M35.5959 21.1428C35.3265 20.925 35.2065 20.7154 35.1219 20.3933C35.0434 20.0937 35.0401 19.7309 35.1454 19.3022C35.5285 17.7495 37.5374 16.0664 39.7855 17.0879C38.3306 17.812 38.6384 19.3716 38.1069 20.2838C37.5754 21.1959 36.9566 21.5784 36.2829 21.455C36.2218 21.4449 35.8653 21.3606 35.5959 21.1428Z" fill="white"/>
<path d="M37.4262 16.0188C37.2487 15.8201 37.1837 15.6462 37.1596 15.3912C37.1371 15.1539 37.1805 14.8782 37.3127 14.567C37.7953 13.4352 39.5289 12.4083 41.1087 13.4627C39.9148 13.8316 39.9547 15.0532 39.4383 15.6795C38.9219 16.3059 38.4047 16.5188 37.9089 16.342C37.8635 16.3258 37.6036 16.2173 37.4262 16.0188Z" fill="white"/>
<path d="M39.7559 11.8629C39.6355 11.695 39.5992 11.5569 39.6011 11.3593C39.6028 11.1751 39.6575 10.9665 39.7847 10.738C40.2463 9.90665 41.6607 9.25556 42.7909 10.1924C41.8437 10.3813 41.7768 11.323 41.3298 11.763C40.8829 12.203 40.4683 12.326 40.1011 12.1501C40.0677 12.1338 39.8764 12.0299 39.7559 11.8629Z" fill="white"/>
<path d="M35.6033 25.6894C35.6528 25.3463 35.7711 25.1361 36.0053 24.8988C36.2227 24.678 36.533 24.4898 36.9541 24.3618C38.4859 23.8971 40.9574 24.7634 41.229 27.2184C39.8628 26.3371 38.6796 27.3997 37.6241 27.4094C36.5687 27.419 35.9245 27.0822 35.6853 26.4402C35.6643 26.3816 35.5546 26.0323 35.6033 25.6894Z" fill="white"/>
<path d="M40.1496 23.0673C40.1026 22.805 40.1382 22.6227 40.2513 22.3929C40.3562 22.1791 40.5373 21.9668 40.8137 21.7712C41.8187 21.061 43.8327 21.0943 44.6254 22.8204C43.4153 22.5088 42.8091 23.5703 42.0412 23.833C41.2732 24.0957 40.7207 24.0063 40.3913 23.5955C40.3613 23.5579 40.1963 23.3302 40.1496 23.0673Z" fill="white"/>
<path d="M43.5326 20.1102C43.5175 19.9048 43.5595 19.7675 43.6648 19.5999C43.7626 19.444 43.9187 19.295 44.1474 19.167C44.9767 18.7012 46.5221 18.8877 46.9938 20.2776C46.0883 19.9419 45.5375 20.709 44.9263 20.8496C44.3151 20.9902 43.8982 20.8775 43.677 20.5349C43.6562 20.5042 43.5478 20.3156 43.5326 20.1102Z" fill="white"/>
</svg>
