<svg width="52" height="49" viewBox="0 0 52 49" fill="none" xmlns="http://www.w3.org/2000/svg">
<path d="M0.128414 37.2629C0.0853296 37.1955 0.042525 37.1277 0 37.0596C0.0355181 37.0814 0.0655613 37.1111 0.0878222 37.1463C0.110083 37.1816 0.123969 37.2214 0.128414 37.2629Z" fill="#25523B"/>
<path d="M52 27.9477C51.1353 32.4944 49.1354 36.7488 46.1861 40.3156C41.1293 46.4394 33.6804 48.3133 25.1182 48.3133C19.7873 48.3133 14.6096 48.8291 10.3917 46.2088C5.97375 43.4636 2.41843 39.5295 0.133008 34.8571C0.133395 34.8328 0.131921 34.8084 0.128601 34.7843C4.2878 41.2852 10.7878 43.2687 16.9509 40.2151C24.5493 36.216 20.1113 22.8445 19.7388 22.0621C19.6183 21.8087 19.5041 21.5537 19.3964 21.297C19.3525 21.1921 19.2042 20.9328 18.9791 20.7758C18.6876 20.5729 18.3057 20.4806 18.2514 20.4707C17.9576 20.4189 17.6689 20.3522 17.3863 20.2735C16.6492 20.0655 15.9369 19.7782 15.2618 19.4168C14.6039 19.065 13.9789 18.655 13.3943 18.1916C12.8216 17.7376 12.2832 17.2418 11.7837 16.7083C11.5355 16.4446 11.297 16.174 11.0682 15.8965C10.9536 15.7577 10.8413 15.6179 10.7312 15.4769C10.6762 15.4062 10.6216 15.3352 10.5675 15.2639L10.4869 15.1558L10.4819 15.1491L10.4945 15.163L10.492 15.1596L10.4823 15.1481L10.4624 15.1239L10.4204 15.075C10.2001 14.8132 9.97118 14.5534 9.73869 14.2987C9.5062 14.0439 9.26993 13.7905 9.02737 13.5437C8.78481 13.297 8.53763 13.0548 8.28374 12.8194C8.02985 12.584 7.77051 12.3555 7.50214 12.1375C7.23472 11.918 6.95521 11.7136 6.66493 11.5254C6.51931 11.432 6.36991 11.3441 6.21548 11.2652C6.06104 11.1848 5.90043 11.1169 5.73518 11.0621C5.90789 11.0947 6.07775 11.141 6.24318 11.2004C6.40957 11.2589 6.5726 11.3263 6.73291 11.4014C7.05257 11.5525 7.3636 11.7212 7.66454 11.9069C7.96649 12.0907 8.26087 12.2869 8.55002 12.4904C8.83916 12.6939 9.12242 12.9052 9.4017 13.122C9.68098 13.3387 9.95586 13.5609 10.2272 13.7882C10.4985 14.0154 10.7656 14.2466 11.0302 14.4867L11.0799 14.532L11.1051 14.5551L11.1181 14.5673L11.121 14.57L11.1368 14.5874V14.5884L11.1422 14.5941L11.2322 14.6852C11.2924 14.7459 11.353 14.806 11.4139 14.8654C11.5359 14.9849 11.6593 15.1022 11.7841 15.2173C12.0338 15.4477 12.2896 15.6693 12.5516 15.882C13.0698 16.3045 13.6186 16.6879 14.1935 17.0292C14.7556 17.363 15.3464 17.6457 15.959 17.8739C16.4488 18.0559 16.9535 18.1947 17.4675 18.2887C17.5224 18.2986 17.9368 18.3855 18.1192 18.2468C18.3015 18.1081 18.2522 17.7432 18.2216 17.6112C18.1909 17.4792 18.1622 17.3538 18.1341 17.2249C17.9547 16.4053 17.8112 15.5826 17.6955 14.7592C17.4647 13.1121 17.3432 11.4624 17.2923 9.81698C17.2413 8.17151 17.2629 6.53003 17.3311 4.89401C17.3651 4.0761 17.4099 3.25932 17.4656 2.44365C17.5195 1.62826 17.5831 0.81413 17.6437 0C17.658 0.816228 17.6691 1.63288 17.6899 2.44847C17.7107 3.26407 17.7392 4.07862 17.7799 4.89212C17.8611 6.51891 17.9897 8.14046 18.1874 9.74857C18.2272 10.072 18.27 10.3947 18.3156 10.7167C18.3305 10.8216 18.3888 11.0785 18.5621 11.1339C18.6933 11.1758 18.9337 11.038 19.0221 10.9939C19.4376 10.7875 19.8326 10.5423 20.2019 10.2616C20.5753 9.97667 20.9219 9.6583 21.2374 9.31045C21.5577 8.95752 21.8468 8.57757 22.1017 8.17487C22.2301 7.97231 22.3507 7.7641 22.4634 7.55021C22.5194 7.44334 22.5737 7.33528 22.6265 7.22603C22.6528 7.17147 22.6784 7.1165 22.7035 7.0611L22.741 6.97822L22.7457 6.96773L22.744 6.97235V6.97067L22.7465 6.96437L22.7557 6.94171L22.7742 6.89702C22.873 6.66138 22.9771 6.43162 23.0854 6.20312C23.1936 5.97462 23.3067 5.74906 23.4242 5.52601C23.6578 5.07927 23.9152 4.64542 24.1954 4.22634C24.3364 4.01777 24.4845 3.81424 24.6421 3.61784C24.7984 3.422 24.9672 3.23641 25.1473 3.06222C24.9903 3.2556 24.8459 3.45885 24.7149 3.67072C24.5835 3.88054 24.4631 4.09751 24.3494 4.31761C24.1255 4.75864 23.9255 5.21141 23.7503 5.67394C23.6619 5.90475 23.5785 6.1371 23.5002 6.37098C23.4221 6.60452 23.3479 6.84016 23.2811 7.07453L23.269 7.11818L23.2631 7.13916L23.2618 7.14399V7.14671C23.2609 7.15014 23.2597 7.1535 23.2583 7.15679L23.2549 7.16833L23.226 7.26023C23.2067 7.32108 23.1867 7.38214 23.1659 7.44299C23.124 7.56469 23.0803 7.68569 23.035 7.80599C22.9428 8.04673 22.8409 8.28454 22.7291 8.5194C22.5043 8.99122 22.2392 9.44276 21.9368 9.86901C21.6302 10.3008 21.285 10.7038 20.9053 11.073C20.5209 11.4466 20.1022 11.7832 19.6547 12.0783C19.4991 12.1804 19.3397 12.2776 19.1763 12.3699C19.1406 12.3909 18.9497 12.5191 18.8502 12.7057C18.744 12.9052 18.7308 13.1658 18.7524 13.2737C18.8364 13.6887 18.9262 14.1017 19.0219 14.5127C19.2057 15.2928 19.4147 16.0642 19.6547 16.8208C19.8947 17.5774 20.1665 18.3204 20.4755 19.0401C20.7794 19.7537 21.1294 20.4468 21.5232 21.1149C21.9065 21.7661 22.3457 22.3828 22.8357 22.958C22.957 23.0989 23.081 23.2361 23.2079 23.3695L23.3042 23.469L23.4154 23.585C23.4893 23.6629 23.5627 23.7411 23.6355 23.8196C23.8093 24.007 24.3582 24.5225 24.918 24.7907C25.2428 24.944 25.6073 24.9925 25.9608 24.9294C26.5064 24.8303 27.0438 24.4908 27.2702 24.3553C29.3422 23.1177 31.0813 21.3937 32.3367 19.3324C32.9718 18.2853 33.4862 17.1696 33.8701 16.0067L33.8822 15.9706L33.899 15.9305L33.9162 15.8904L33.9511 15.8113L34.0209 15.6554C34.0679 15.552 34.1156 15.4494 34.1638 15.3474C34.2605 15.1434 34.3595 14.9412 34.4609 14.7406C34.6632 14.3391 34.873 13.9427 35.0904 13.5513C35.5263 12.7679 35.9904 12.0033 36.4828 11.2574C36.9752 10.5116 37.4956 9.78753 38.044 9.08531C38.5929 8.38428 39.1709 7.70737 39.7796 7.06173C39.2295 7.75794 38.7152 8.47975 38.2332 9.22065C37.7512 9.96155 37.3028 10.7228 36.8832 11.4977C36.4635 12.2726 36.0745 13.0628 35.7161 13.8645C35.5369 14.2657 35.3661 14.6696 35.2037 15.0761C35.1227 15.2795 35.0443 15.4833 34.9683 15.6875C34.9305 15.7896 34.8935 15.8918 34.8573 15.9941L34.8042 16.1468L34.7786 16.2228L34.7662 16.2603L34.7551 16.2952L34.766 16.2618C34.4659 17.5343 34.0224 18.7686 33.4441 19.9411C33.3726 20.0859 33.3165 20.3805 33.4487 20.5759C33.5616 20.7427 33.8474 20.8233 33.9823 20.8277C34.5701 20.8462 35.158 20.7969 35.7344 20.6808C36.3173 20.5632 36.884 20.3762 37.4224 20.1237C37.9696 19.866 38.4854 19.5465 38.9599 19.1715C39.2009 18.9817 39.432 18.7796 39.6523 18.5661C39.7628 18.459 39.871 18.3489 39.9769 18.2359L39.9968 18.2149L40.0016 18.2096L40.0042 18.2069C40.0132 18.1968 40.0176 18.1916 40.0201 18.1893L40.0335 18.1765C40.0503 18.1608 40.0663 18.1463 40.0824 18.1318C40.1145 18.1028 40.1464 18.0749 40.1785 18.0479C40.2426 17.9932 40.307 17.9398 40.3718 17.8878C40.6315 17.68 40.8999 17.4891 41.1756 17.3101C41.4513 17.1311 41.7348 16.9666 42.0246 16.8153C42.6014 16.5125 43.2067 16.2673 43.8316 16.0833C44.4503 15.9009 45.0875 15.7883 45.7312 15.7475C45.1036 15.858 44.4903 16.0383 43.9027 16.2849C43.3214 16.5291 42.7655 16.8299 42.243 17.183C41.9831 17.3584 41.7322 17.5449 41.4902 17.7426C41.2486 17.9402 41.0166 18.1484 40.799 18.3662C40.7449 18.4207 40.6916 18.4759 40.6397 18.5313C40.6139 18.559 40.5885 18.5869 40.564 18.6152C40.5518 18.6291 40.5396 18.6429 40.5287 18.6559L40.5239 18.662L40.5342 18.6505L40.5319 18.6536L40.5273 18.6599L40.5086 18.6847C40.4097 18.8173 40.3073 18.9477 40.2014 19.076C39.9891 19.3339 39.7636 19.5807 39.526 19.8155C39.0439 20.292 38.5088 20.7118 37.9313 21.0667C37.3447 21.4249 36.7174 21.7118 36.0628 21.9211C35.0662 22.2393 34.0224 22.3841 32.9768 22.3491C32.8008 22.343 32.1585 22.4733 31.9 22.6773C31.6577 22.868 31.3991 23.0936 31.268 23.248C30.4023 24.2662 29.4178 25.177 28.3355 25.9609C28.0977 26.1333 27.8552 26.2997 27.608 26.46C27.5228 26.515 27.0094 26.8732 26.8344 27.3749C26.6728 27.8384 26.8438 28.4465 26.8839 28.531C27.6562 30.1597 29.5407 38.8443 39.7855 38.1015C49.99 37.3612 51.9847 28.0207 52 27.9477Z" fill="#25523B"/>
<path d="M27.8145 25.2353C28.2552 25.1644 28.5248 25.0068 28.8263 24.7005C29.1066 24.4153 29.3431 24.0112 29.4994 23.465C30.0681 21.4794 28.8995 18.3077 25.7261 18.0078C26.8902 19.7523 25.5444 21.3008 25.5536 22.6628C25.5629 24.0248 26.0104 24.8507 26.8441 25.1449C26.9198 25.1717 27.373 25.3062 27.8145 25.2353Z" fill="#25523B"/>
<path d="M29.3714 29.0153C29.3924 28.5685 29.5206 28.284 29.791 27.9508C30.0428 27.6409 30.4193 27.3616 30.9451 27.1461C32.8562 26.3633 36.1373 27.177 36.7833 30.2981C34.9217 29.3329 33.531 30.8399 32.1753 30.9801C30.8196 31.1202 29.9511 30.7661 29.5665 29.9698C29.5321 29.898 29.3487 29.4618 29.3714 29.0153Z" fill="#25523B"/>
<path d="M31.7266 20.3125C32.0688 20.2575 32.2771 20.1354 32.5107 19.8979C32.7278 19.6769 32.911 19.3639 33.0323 18.9406C33.4729 17.402 32.5673 14.9443 30.1084 14.7118C31.0106 16.0637 29.9676 17.2635 29.9747 18.3189C29.9818 19.3744 30.3287 20.0143 30.9745 20.2424C31.0335 20.2632 31.3845 20.3675 31.7266 20.3125Z" fill="#25523B"/>
<path d="M34.5048 15.2856C34.768 15.2437 34.9283 15.1495 35.1077 14.9669C35.2755 14.7972 35.4157 14.5563 35.5089 14.2308C35.8477 13.0478 35.1522 11.1577 33.2606 10.9785C33.954 12.018 33.1523 12.9406 33.1577 13.7522C33.1632 14.5638 33.4305 15.0559 33.9265 15.2313C33.9719 15.2479 34.2417 15.328 34.5048 15.2856Z" fill="#25523B"/>
<path d="M37.2546 11.8036C37.458 11.7711 37.5818 11.6987 37.7204 11.5573C37.8495 11.4259 37.9584 11.24 38.0306 10.9884C38.2924 10.074 37.7542 8.61341 36.2928 8.47534C36.8289 9.27856 36.2088 9.99176 36.2135 10.6189C36.2181 11.2461 36.4233 11.6261 36.8077 11.7621C36.8425 11.7745 37.0511 11.8364 37.2546 11.8036Z" fill="#25523B"/>
<path d="M16.2781 12.4244C16.54 12.1976 16.6529 11.9837 16.7263 11.6591C16.7947 11.357 16.7855 10.9942 16.6657 10.5706C16.2301 9.03064 14.166 7.41811 11.9532 8.5153C13.4318 9.18969 13.1773 10.7588 13.7392 11.6522C14.3012 12.5457 14.9327 12.907 15.6021 12.7609C15.6629 12.7475 16.0163 12.6512 16.2781 12.4244Z" fill="#25523B"/>
<path d="M16.2632 7.53502C16.4695 7.36716 16.561 7.20475 16.6248 6.95674C16.6839 6.72593 16.685 6.44686 16.6023 6.11869C16.3018 4.92519 14.751 3.64 13.0258 4.4342C14.1473 4.9852 13.9167 6.18562 14.3288 6.88498C14.7409 7.58433 15.2183 7.87599 15.7359 7.77842C15.7832 7.76961 16.0568 7.70351 16.2632 7.53502Z" fill="#25523B"/>
<path d="M16.7079 3.54144C16.8516 3.39456 16.9077 3.26174 16.9347 3.06576C16.9601 2.88321 16.9364 2.66898 16.8441 2.42411C16.509 1.53424 15.2047 0.683597 13.9491 1.44548C14.8587 1.77029 14.7871 2.71221 15.1661 3.21306C15.545 3.71392 15.9362 3.89584 16.325 3.7754C16.36 3.76386 16.5644 3.68895 16.7079 3.54144Z" fill="#25523B"/>
<path d="M18.8091 11.2751C18.5472 11.0482 18.4343 10.8344 18.3609 10.5098C18.2925 10.2075 18.3015 9.84487 18.4213 9.42123C18.8569 7.88131 20.9212 6.26858 23.1341 7.36597C21.6552 8.04015 21.9099 9.60944 21.348 10.5029C20.7861 11.3963 20.1543 11.7577 19.4852 11.6114C19.4243 11.5982 19.071 11.5019 18.8091 11.2751Z" fill="#25523B"/>
<path d="M18.824 6.38548C18.6178 6.21762 18.5261 6.05521 18.4625 5.8072C18.4031 5.57639 18.4021 5.29753 18.4847 4.96915C18.7854 3.77586 20.3362 2.49046 22.0614 3.28487C20.9397 3.83587 21.1703 5.03629 20.7584 5.73565C20.3465 6.435 19.8688 6.72666 19.3511 6.62909C19.3041 6.62028 19.0303 6.55418 18.824 6.38548Z" fill="#25523B"/>
<path d="M18.3792 2.39211C18.2357 2.24524 18.1796 2.11242 18.1524 1.91623C18.1272 1.73389 18.1509 1.51965 18.2432 1.27479C18.5789 0.384908 19.8826 -0.466781 21.1374 0.295522C20.2278 0.620124 20.2995 1.56225 19.9216 2.0629C19.5437 2.56354 19.1516 2.74567 18.7627 2.62544C18.7273 2.61453 18.5233 2.53962 18.3792 2.39211Z" fill="#25523B"/>
<path d="M21.1772 15.3402C21.1007 15.0024 21.1353 14.7634 21.2696 14.4589C21.3936 14.175 21.6158 13.8882 21.9633 13.6179C23.2268 12.6355 25.8451 12.5596 26.9781 14.7548C25.3876 14.4216 24.6629 15.8366 23.6809 16.2236C22.6989 16.6105 21.9759 16.5272 21.5235 16.0137C21.4819 15.9655 21.2538 15.6782 21.1772 15.3402Z" fill="#25523B"/>
<path d="M23.53 11.1257C23.4637 10.8679 23.4858 10.6834 23.5814 10.4459C23.6704 10.2247 23.8349 9.99939 24.0959 9.7839C25.0452 9.00082 27.056 8.88416 27.9752 10.5462C26.7452 10.3255 26.2196 11.4292 25.4734 11.7483C24.7273 12.0674 24.1696 12.0207 23.811 11.6344C23.7776 11.5993 23.5963 11.3838 23.53 11.1257Z" fill="#25523B"/>
<path d="M24.9885 7.90809C24.9067 7.71925 24.9015 7.57552 24.9466 7.38352C24.9885 7.20412 25.0863 7.01234 25.2596 6.81699C25.8891 6.10484 27.4112 5.77352 28.313 6.93177C27.3478 6.91078 27.079 7.81724 26.5478 8.15086C26.0165 8.48449 25.5851 8.51491 25.2645 8.26396C25.2344 8.23899 25.0699 8.09694 24.9885 7.90809Z" fill="#25523B"/>
<path d="M42.045 18.3906C42.2321 18.476 42.3757 18.4842 42.5695 18.4437C42.7498 18.4057 42.9435 18.3111 43.1428 18.1418C43.8671 17.5255 44.228 16.0112 43.0878 15.0867C43.0893 16.0519 42.1782 16.3037 41.8345 16.8282C41.4908 17.3528 41.4516 17.7836 41.696 18.1082C41.7181 18.138 41.8574 18.3052 42.045 18.3906Z" fill="#25523B"/>
<path d="M17.1945 24.5387C17.143 24.0945 16.9974 23.8188 16.7049 23.5041C16.4322 23.2103 16.0391 22.9572 15.5005 22.7768C13.5422 22.1207 10.3216 23.1476 9.88135 26.3044C11.6758 25.2188 13.163 26.6319 14.524 26.6821C15.8849 26.7322 16.7299 26.3227 17.061 25.5031C17.0912 25.4286 17.2457 24.9829 17.1945 24.5387Z" fill="#25523B"/>
<path d="M12.6142 20.9916C12.5741 20.6475 12.461 20.4341 12.2339 20.1905C12.0227 19.9638 11.7178 19.7672 11.3002 19.6277C9.78212 19.121 7.28748 19.9192 6.94861 22.3657C8.33829 21.5231 9.49192 22.6175 10.5467 22.6555C11.6015 22.6935 12.2558 22.3754 12.5115 21.74C12.5348 21.6821 12.6542 21.337 12.6142 20.9916Z" fill="#25523B"/>
<path d="M9.578 17.4598C9.52995 17.1977 9.43259 17.0402 9.24626 16.8641C9.07273 16.6998 8.82933 16.5651 8.50158 16.4791C7.31123 16.1662 5.43811 16.9038 5.29962 18.7979C6.32379 18.0817 7.26381 18.8634 8.07501 18.8399C8.8862 18.8163 9.37237 18.5392 9.53687 18.0389C9.55177 17.9936 9.62668 17.7219 9.578 17.4598Z" fill="#25523B"/>
<path d="M6.93142 14.8996C6.88945 14.6982 6.81098 14.5777 6.66368 14.4458C6.52645 14.3228 6.33551 14.2227 6.08078 14.1625C5.15523 13.9436 3.72127 14.5494 3.65161 16.0157C4.42902 15.4427 5.17034 16.0285 5.79667 15.9947C6.42301 15.9609 6.79314 15.7377 6.91086 15.3478C6.92135 15.3126 6.9736 15.1013 6.93142 14.8996Z" fill="#25523B"/>
<path d="M15.2381 18.9239C14.8946 18.9694 14.66 18.9124 14.368 18.7521C14.0964 18.6031 13.831 18.3557 13.5931 17.9853C12.729 16.6383 12.8897 14.0238 15.1781 13.0945C14.7028 14.6474 16.0474 15.497 16.3431 16.5109C16.6387 17.5248 16.4912 18.2365 15.9383 18.6406C15.8879 18.6763 15.5816 18.8771 15.2381 18.9239Z" fill="#25523B"/>
<path d="M11.4855 16.2182C11.2196 16.2361 11.0423 16.1805 10.8264 16.043C10.6254 15.915 10.434 15.7119 10.2702 15.4156C9.67446 14.3388 9.92898 12.3408 11.7314 11.7422C11.2889 12.9109 12.2769 13.6306 12.454 14.4221C12.6311 15.2136 12.4813 15.7537 12.0367 16.0361C11.9964 16.0617 11.7513 16.2004 11.4855 16.2182Z" fill="#25523B"/>
<path d="M8.4554 14.0488C8.24977 14.0577 8.1138 14.0113 7.94971 13.902C7.79696 13.7991 7.65302 13.6386 7.53195 13.4066C7.09236 12.5631 7.32737 11.0242 8.73153 10.5966C8.36706 11.4908 9.11698 12.0653 9.23847 12.681C9.35996 13.2966 9.23386 13.7102 8.88491 13.919C8.85323 13.9378 8.66145 14.0402 8.4554 14.0488Z" fill="#25523B"/>
<path d="M35.5959 21.1429C35.3265 20.9251 35.2065 20.7155 35.1219 20.3934C35.0434 20.0938 35.0401 19.731 35.1454 19.3023C35.5285 17.7496 37.5374 16.0666 39.7855 17.088C38.3306 17.8121 38.6384 19.3718 38.1069 20.2839C37.5754 21.196 36.9566 21.5785 36.2829 21.4551C36.2218 21.4451 35.8653 21.3607 35.5959 21.1429Z" fill="#25523B"/>
<path d="M37.4262 16.0187C37.2487 15.82 37.1837 15.6461 37.1596 15.3911C37.1371 15.1538 37.1805 14.8781 37.3127 14.5669C37.7953 13.4351 39.5289 12.4082 41.1087 13.4626C39.9148 13.8315 39.9547 15.0531 39.4383 15.6794C38.9219 16.3058 38.4047 16.5187 37.9089 16.3418C37.8635 16.3257 37.6036 16.2172 37.4262 16.0187Z" fill="#25523B"/>
<path d="M39.7559 11.863C39.6355 11.6951 39.5992 11.5571 39.6011 11.3594C39.6028 11.1752 39.6575 10.9666 39.7847 10.7381C40.2463 9.90677 41.6607 9.25568 42.7909 10.1926C41.8437 10.3814 41.7768 11.3231 41.3298 11.7631C40.8829 12.2031 40.4683 12.3261 40.1011 12.1502C40.0677 12.1339 39.8764 12.03 39.7559 11.863Z" fill="#25523B"/>
<path d="M35.6033 25.6894C35.6528 25.3463 35.7711 25.1361 36.0053 24.8988C36.2227 24.678 36.533 24.4898 36.9541 24.3618C38.4859 23.8971 40.9574 24.7634 41.229 27.2184C39.8628 26.3371 38.6796 27.3997 37.6241 27.4094C36.5687 27.419 35.9245 27.0822 35.6853 26.4402C35.6643 26.3816 35.5546 26.0323 35.6033 25.6894Z" fill="#25523B"/>
<path d="M40.1496 23.0673C40.1026 22.805 40.1382 22.6227 40.2513 22.3929C40.3562 22.1791 40.5373 21.9668 40.8137 21.7712C41.8187 21.061 43.8327 21.0943 44.6254 22.8204C43.4153 22.5088 42.8091 23.5703 42.0412 23.833C41.2732 24.0957 40.7207 24.0063 40.3913 23.5955C40.3613 23.5579 40.1963 23.3302 40.1496 23.0673Z" fill="#25523B"/>
<path d="M43.5326 20.1102C43.5175 19.9048 43.5595 19.7675 43.6648 19.5999C43.7626 19.444 43.9187 19.295 44.1474 19.167C44.9767 18.7012 46.5221 18.8877 46.9938 20.2776C46.0883 19.9419 45.5375 20.709 44.9263 20.8496C44.3151 20.9902 43.8982 20.8775 43.677 20.5349C43.6562 20.5042 43.5478 20.3156 43.5326 20.1102Z" fill="#25523B"/>
</svg>
